<svg width="308" height="232" viewBox="0 0 308 232" fill="none" xmlns="http://www.w3.org/2000/svg">
<path d="M31.776 210.96C27.936 210.96 24.736 210.288 22.176 208.944C19.616 207.536 17.568 205.808 16.032 203.76V207.792C16.032 208.432 15.808 208.976 15.36 209.424C14.976 209.808 14.464 210 13.824 210H9.408C8.768 210 8.224 209.808 7.776 209.424C7.392 208.976 7.2 208.432 7.2 207.792V144.048C7.2 143.408 7.392 142.896 7.776 142.512C8.224 142.064 8.768 141.84 9.408 141.84H14.016C14.72 141.84 15.264 142.064 15.648 142.512C16.032 142.896 16.224 143.408 16.224 144.048V166.128C17.824 164.144 19.872 162.48 22.368 161.136C24.928 159.792 28.064 159.12 31.776 159.12C35.36 159.12 38.4 159.76 40.896 161.04C43.456 162.256 45.536 163.952 47.136 166.128C48.8 168.304 50.048 170.768 50.88 173.52C51.712 176.272 52.16 179.152 52.224 182.16C52.288 183.184 52.32 184.144 52.32 185.04C52.32 185.936 52.288 186.896 52.224 187.92C52.16 190.992 51.712 193.904 50.88 196.656C50.048 199.408 48.8 201.872 47.136 204.048C45.536 206.16 43.456 207.856 40.896 209.136C38.4 210.352 35.36 210.96 31.776 210.96ZM29.76 203.184C33.088 203.184 35.68 202.48 37.536 201.072C39.456 199.6 40.832 197.712 41.664 195.408C42.496 193.04 42.976 190.512 43.104 187.824C43.168 185.968 43.168 184.112 43.104 182.256C42.976 179.568 42.496 177.072 41.664 174.768C40.832 172.4 39.456 170.512 37.536 169.104C35.68 167.632 33.088 166.896 29.76 166.896C26.752 166.896 24.256 167.6 22.272 169.008C20.288 170.416 18.784 172.208 17.76 174.384C16.8 176.56 16.288 178.768 16.224 181.008C16.16 182.032 16.128 183.28 16.128 184.752C16.128 186.16 16.16 187.376 16.224 188.4C16.352 190.768 16.864 193.104 17.76 195.408C18.72 197.648 20.16 199.504 22.08 200.976C24.064 202.448 26.624 203.184 29.76 203.184ZM66.5018 210C65.8618 210 65.3178 209.808 64.8698 209.424C64.4858 208.976 64.2938 208.432 64.2938 207.792V144.048C64.2938 143.408 64.4858 142.896 64.8698 142.512C65.3178 142.064 65.8618 141.84 66.5018 141.84H71.0138C71.7178 141.84 72.2618 142.064 72.6458 142.512C73.0298 142.896 73.2218 143.408 73.2218 144.048V207.792C73.2218 208.432 73.0298 208.976 72.6458 209.424C72.2618 209.808 71.7178 210 71.0138 210H66.5018ZM107.99 210.96C103.126 210.96 99.0615 210.032 95.7975 208.176C92.5335 206.32 90.0375 203.76 88.3095 200.496C86.5815 197.168 85.6215 193.392 85.4295 189.168C85.3655 188.08 85.3335 186.704 85.3335 185.04C85.3335 183.312 85.3655 181.936 85.4295 180.912C85.6215 176.624 86.5815 172.848 88.3095 169.584C90.1015 166.32 92.6295 163.76 95.8935 161.904C99.1575 160.048 103.19 159.12 107.99 159.12C112.79 159.12 116.822 160.048 120.086 161.904C123.35 163.76 125.846 166.32 127.574 169.584C129.366 172.848 130.358 176.624 130.55 180.912C130.614 181.936 130.646 183.312 130.646 185.04C130.646 186.704 130.614 188.08 130.55 189.168C130.358 193.392 129.398 197.168 127.67 200.496C125.942 203.76 123.446 206.32 120.182 208.176C116.918 210.032 112.854 210.96 107.99 210.96ZM107.99 203.568C111.958 203.568 115.126 202.32 117.494 199.824C119.862 197.264 121.142 193.552 121.334 188.688C121.398 187.728 121.43 186.512 121.43 185.04C121.43 183.568 121.398 182.352 121.334 181.392C121.142 176.528 119.862 172.848 117.494 170.352C115.126 167.792 111.958 166.512 107.99 166.512C104.022 166.512 100.822 167.792 98.3895 170.352C96.0215 172.848 94.7735 176.528 94.6455 181.392C94.5815 182.352 94.5495 183.568 94.5495 185.04C94.5495 186.512 94.5815 187.728 94.6455 188.688C94.7735 193.552 96.0215 197.264 98.3895 199.824C100.822 202.32 104.022 203.568 107.99 203.568ZM163.115 231.12C158.763 231.12 155.179 230.544 152.363 229.392C149.611 228.24 147.435 226.832 145.835 225.168C144.299 223.568 143.179 221.936 142.475 220.272C141.835 218.672 141.483 217.392 141.419 216.432C141.355 215.792 141.547 215.248 141.995 214.8C142.507 214.352 143.051 214.128 143.627 214.128H148.234C148.811 214.128 149.291 214.256 149.674 214.512C150.059 214.768 150.379 215.312 150.635 216.144C151.019 217.104 151.595 218.16 152.363 219.312C153.131 220.528 154.315 221.552 155.915 222.384C157.515 223.28 159.755 223.728 162.635 223.728C165.643 223.728 168.171 223.312 170.219 222.48C172.267 221.712 173.803 220.304 174.827 218.256C175.915 216.272 176.459 213.52 176.459 210V203.472C174.923 205.456 172.907 207.12 170.411 208.464C167.915 209.744 164.779 210.384 161.003 210.384C157.419 210.384 154.347 209.776 151.787 208.56C149.227 207.28 147.115 205.584 145.451 203.472C143.851 201.296 142.635 198.832 141.803 196.08C141.035 193.328 140.587 190.448 140.459 187.44C140.395 185.648 140.395 183.888 140.459 182.16C140.587 179.152 141.035 176.272 141.803 173.52C142.635 170.768 143.851 168.304 145.451 166.128C147.115 163.952 149.227 162.256 151.787 161.04C154.347 159.76 157.419 159.12 161.003 159.12C164.843 159.12 168.011 159.856 170.507 161.328C173.067 162.736 175.147 164.464 176.747 166.512V162.384C176.747 161.744 176.939 161.2 177.323 160.752C177.771 160.304 178.315 160.08 178.955 160.08H183.371C184.011 160.08 184.555 160.304 185.003 160.752C185.451 161.2 185.675 161.744 185.675 162.384V208.944C185.675 213.232 184.939 217.04 183.467 220.368C182.059 223.696 179.691 226.32 176.363 228.24C173.099 230.16 168.683 231.12 163.115 231.12ZM162.923 202.704C166.123 202.704 168.683 201.968 170.603 200.496C172.587 199.024 174.027 197.168 174.923 194.928C175.883 192.688 176.395 190.416 176.459 188.112C176.523 187.216 176.555 186.128 176.555 184.848C176.555 183.504 176.523 182.384 176.459 181.488C176.395 179.184 175.883 176.912 174.923 174.672C174.027 172.432 172.587 170.576 170.603 169.104C168.683 167.632 166.123 166.896 162.923 166.896C159.723 166.896 157.163 167.632 155.243 169.104C153.323 170.512 151.947 172.4 151.115 174.768C150.283 177.072 149.803 179.568 149.674 182.256C149.611 183.92 149.611 185.616 149.674 187.344C149.803 190.032 150.283 192.56 151.115 194.928C151.947 197.232 153.323 199.12 155.243 200.592C157.163 202 159.723 202.704 162.923 202.704ZM219.82 210.96C213.228 210.96 207.98 208.944 204.076 204.912C200.172 200.816 198.028 195.248 197.644 188.208C197.58 187.376 197.548 186.32 197.548 185.04C197.548 183.696 197.58 182.608 197.644 181.776C197.9 177.232 198.956 173.264 200.812 169.872C202.668 166.416 205.196 163.76 208.396 161.904C211.66 160.048 215.468 159.12 219.82 159.12C224.684 159.12 228.748 160.144 232.012 162.192C235.34 164.24 237.868 167.152 239.596 170.928C241.324 174.704 242.188 179.12 242.188 184.176V185.808C242.188 186.512 241.964 187.056 241.516 187.44C241.132 187.824 240.62 188.016 239.98 188.016H206.764C206.764 188.08 206.764 188.208 206.764 188.4C206.764 188.592 206.764 188.752 206.764 188.88C206.892 191.504 207.468 193.968 208.492 196.272C209.516 198.512 210.988 200.336 212.908 201.744C214.828 203.152 217.132 203.856 219.82 203.856C222.124 203.856 224.044 203.504 225.58 202.8C227.116 202.096 228.364 201.328 229.324 200.496C230.284 199.6 230.924 198.928 231.244 198.48C231.82 197.648 232.268 197.168 232.588 197.04C232.908 196.848 233.42 196.752 234.124 196.752H238.732C239.372 196.752 239.884 196.944 240.268 197.328C240.716 197.648 240.908 198.128 240.844 198.768C240.78 199.728 240.268 200.912 239.308 202.32C238.348 203.664 236.972 205.008 235.18 206.352C233.388 207.696 231.212 208.816 228.652 209.712C226.092 210.544 223.148 210.96 219.82 210.96ZM206.764 181.392H233.068V181.104C233.068 178.224 232.524 175.664 231.436 173.424C230.412 171.184 228.908 169.424 226.924 168.144C224.94 166.8 222.572 166.128 219.82 166.128C217.068 166.128 214.7 166.8 212.716 168.144C210.796 169.424 209.324 171.184 208.3 173.424C207.276 175.664 206.764 178.224 206.764 181.104V181.392ZM260.398 210C259.758 210 259.214 209.808 258.766 209.424C258.382 208.976 258.19 208.432 258.19 207.792V167.76H250.03C249.39 167.76 248.846 167.568 248.398 167.184C248.014 166.736 247.822 166.192 247.822 165.552V162.288C247.822 161.648 248.014 161.136 248.398 160.752C248.846 160.304 249.39 160.08 250.03 160.08H258.19V155.28C258.19 152.016 258.734 149.168 259.822 146.736C260.91 144.24 262.638 142.32 265.006 140.976C267.438 139.632 270.67 138.96 274.702 138.96H280.462C281.102 138.96 281.614 139.184 281.998 139.632C282.382 140.016 282.574 140.528 282.574 141.168V144.432C282.574 145.072 282.382 145.616 281.998 146.064C281.614 146.448 281.102 146.64 280.462 146.64H274.894C271.886 146.64 269.838 147.44 268.75 149.04C267.662 150.576 267.118 152.816 267.118 155.76V160.08H279.502C280.142 160.08 280.654 160.304 281.038 160.752C281.422 161.136 281.614 161.648 281.614 162.288V165.552C281.614 166.192 281.422 166.736 281.038 167.184C280.654 167.568 280.142 167.76 279.502 167.76H267.118V207.792C267.118 208.432 266.894 208.976 266.446 209.424C266.062 209.808 265.55 210 264.91 210H260.398Z" fill="#FAFCFC"/>
<path d="M291.671 210C291.031 210 290.487 209.808 290.039 209.424C289.655 208.976 289.463 208.432 289.463 207.792V200.88C289.463 200.24 289.655 199.728 290.039 199.344C290.487 198.896 291.031 198.672 291.671 198.672H298.583C299.223 198.672 299.735 198.896 300.119 199.344C300.567 199.728 300.791 200.24 300.791 200.88V207.792C300.791 208.432 300.567 208.976 300.119 209.424C299.735 209.808 299.223 210 298.583 210H291.671Z" fill="url(#paint0_linear_1116_3085)"/>
<path d="M98 17.9003V109C98 110.657 99.3431 112 101 112H192.079C194.713 112 196.068 108.849 194.257 106.937L187.73 100.045C187.163 99.4467 186.375 99.1079 185.551 99.1079H131.942C129.305 99.1079 127.951 95.9505 129.768 94.0401L152.865 69.7622C153.971 68.5995 153.966 66.7721 152.853 65.6152L147.298 59.8368C146.126 58.6183 144.179 58.6079 142.995 59.814L117.456 85.8166C115.574 87.7327 112.316 86.4002 112.316 83.7145V25.8571C112.316 25.0385 111.981 24.2555 111.39 23.6895L103.074 15.7327C101.166 13.9069 98 15.2593 98 17.9003Z" fill="url(#paint1_linear_1116_3085)"/>
<path d="M206.988 0.0120586L116.487 0.374377C113.832 0.385006 112.532 3.55122 114.438 5.39965C118.718 9.55026 123.263 13.8766 123.263 14.1007C123.263 14.4101 167.743 14.0018 192.663 13.7311C194.333 13.7129 195.684 15.0615 195.684 16.7314V26.8129C195.684 28.4698 194.341 29.8129 192.684 29.8129H146.266C143.628 29.8129 142.274 32.9727 144.094 34.8825L151.429 42.5803C151.995 43.1745 152.78 43.5108 153.601 43.5108H192.684C194.341 43.5108 195.684 44.8539 195.684 46.5108V85.7904C195.684 86.5793 195.995 87.3364 196.549 87.8978L204.865 96.3227C206.749 98.2316 210 96.8974 210 94.2153V3.01203C210 1.35049 208.65 0.00540663 206.988 0.0120586Z" fill="url(#paint2_linear_1116_3085)"/>
<defs>
<linearGradient id="paint0_linear_1116_3085" x1="286" y1="141.818" x2="248.925" y2="275.628" gradientUnits="userSpaceOnUse">
<stop stop-color="#5390E3"/>
<stop offset="1" stop-color="#1357B3"/>
</linearGradient>
<linearGradient id="paint1_linear_1116_3085" x1="128.185" y1="10.8777" x2="142.223" y2="81.8654" gradientUnits="userSpaceOnUse">
<stop stop-color="#5390E3"/>
<stop offset="1" stop-color="#1357B3"/>
</linearGradient>
<linearGradient id="paint2_linear_1116_3085" x1="139.427" y1="4.75754e-07" x2="153.629" y2="71.2265" gradientUnits="userSpaceOnUse">
<stop stop-color="#5390E3"/>
<stop offset="1" stop-color="#1357B3"/>
</linearGradient>
</defs>
</svg>
