<svg width="174" height="170" viewBox="0 0 174 170" fill="none" xmlns="http://www.w3.org/2000/svg">
<path d="M62 75.9003V167C62 168.657 63.3431 170 65 170H156.079C158.713 170 160.068 166.849 158.257 164.937L151.73 158.045C151.163 157.447 150.375 157.108 149.551 157.108H95.942C93.3052 157.108 91.951 153.951 93.7684 152.04L116.865 127.762C117.971 126.599 117.966 124.772 116.853 123.615L111.298 117.837C110.126 116.618 108.179 116.608 106.995 117.814L81.4561 143.817C79.5742 145.733 76.3158 144.4 76.3158 141.714V83.8571C76.3158 83.0385 75.9813 82.2555 75.3898 81.6895L67.074 73.7327C65.1659 71.9069 62 73.2593 62 75.9003Z" fill="url(#paint0_linear_1116_3098)" fill-opacity="0.3"/>
<path d="M170.988 58.0121L80.4873 58.3744C77.8323 58.385 76.5324 61.5512 78.4383 63.3997C82.718 67.5503 87.2631 71.8766 87.2631 72.1007C87.2631 72.4101 131.743 72.0018 156.663 71.7311C158.333 71.7129 159.684 73.0615 159.684 74.7314V84.8129C159.684 86.4698 158.341 87.8129 156.684 87.8129H110.266C107.628 87.8129 106.274 90.9727 108.094 92.8825L115.429 100.58C115.995 101.175 116.78 101.511 117.601 101.511H156.684C158.341 101.511 159.684 102.854 159.684 104.511V143.79C159.684 144.579 159.995 145.336 160.549 145.898L168.865 154.323C170.749 156.232 174 154.897 174 152.215V61.012C174 59.3505 172.65 58.0054 170.988 58.0121Z" fill="url(#paint1_linear_1116_3098)"/>
<path d="M0 17.9003V109C0 110.657 1.34314 112 3 112H94.0792C96.7128 112 98.0684 108.849 96.2573 106.937L89.7296 100.045C89.163 99.4467 88.3754 99.1079 87.5515 99.1079H33.942C31.3052 99.1079 29.951 95.9505 31.7684 94.0401L54.8645 69.7622C55.9707 68.5995 55.9658 66.7721 54.8535 65.6152L49.2976 59.8368C48.1259 58.6183 46.1793 58.6079 44.9947 59.814L19.4561 85.8166C17.5742 87.7327 14.3158 86.4002 14.3158 83.7145V25.8571C14.3158 25.0385 13.9813 24.2555 13.3898 23.6895L5.07402 15.7327C3.16587 13.9069 0 15.2593 0 17.9003Z" fill="url(#paint2_linear_1116_3098)"/>
<path d="M108.988 0.0120586L18.4873 0.374377C15.8323 0.385006 14.5324 3.55122 16.4383 5.39965C20.718 9.55026 25.2631 13.8766 25.2631 14.1007C25.2631 14.4101 69.7434 14.0018 94.6633 13.7311C96.3331 13.7129 97.6842 15.0615 97.6842 16.7314V26.8129C97.6842 28.4698 96.341 29.8129 94.6842 29.8129H48.2658C45.6278 29.8129 44.2741 32.9727 46.0939 34.8825L53.4292 42.5803C53.9953 43.1745 54.7803 43.5108 55.601 43.5108H94.6842C96.341 43.5108 97.6842 44.8539 97.6842 46.5108V85.7904C97.6842 86.5792 97.9949 87.3364 98.5491 87.8978L106.865 96.3227C108.749 98.2316 112 96.8974 112 94.2153V3.01203C112 1.35049 110.65 0.00540663 108.988 0.0120586Z" fill="url(#paint3_linear_1116_3098)" fill-opacity="0.3"/>
<defs>
<linearGradient id="paint0_linear_1116_3098" x1="92.1845" y1="68.8777" x2="106.223" y2="139.865" gradientUnits="userSpaceOnUse">
<stop stop-color="#5390E3"/>
<stop offset="1" stop-color="#1357B3"/>
</linearGradient>
<linearGradient id="paint1_linear_1116_3098" x1="103.427" y1="58" x2="117.629" y2="129.226" gradientUnits="userSpaceOnUse">
<stop stop-color="#5390E3"/>
<stop offset="1" stop-color="#1357B3"/>
</linearGradient>
<linearGradient id="paint2_linear_1116_3098" x1="93.8346" y1="20.0706" x2="9.12781" y2="105.375" gradientUnits="userSpaceOnUse">
<stop stop-color="#5390E3"/>
<stop offset="1" stop-color="#1357B3"/>
</linearGradient>
<linearGradient id="paint3_linear_1116_3098" x1="104.812" y1="9.22957" x2="19.7657" y2="94.1808" gradientUnits="userSpaceOnUse">
<stop stop-color="#5390E3"/>
<stop offset="1" stop-color="#1357B3"/>
</linearGradient>
</defs>
</svg>
