<svg width="112" height="113" viewBox="0 0 112 113" fill="none" xmlns="http://www.w3.org/2000/svg">
<path d="M0 18.0725V109.122C0 110.779 1.34314 112.122 3 112.122H94.4653C97.0389 112.122 98.4179 109.094 96.7284 107.153L88.8969 98.153C88.3271 97.4982 87.5017 97.1223 86.6337 97.1223H32.7536C30.0123 97.1223 28.707 93.7487 30.7344 91.9036L54.7229 70.0723C55.9708 68.9366 56.037 66.9955 54.8693 65.7775L49.1992 59.8631C48.0663 58.6813 46.1951 58.6261 44.9944 59.7388L19.5947 83.2784C17.666 85.0658 14.5345 83.6835 14.5556 81.0541L14.9897 26.7867C14.9963 25.9651 14.6656 25.1767 14.0749 24.6057L5.08507 15.9156C3.18099 14.075 0 15.4243 0 18.0725Z" fill="url(#paint0_linear_1135_3022)"/>
<path d="M108.988 0.0120586L18.4873 0.374377C15.8323 0.385006 14.4916 3.59128 16.3397 5.49754C20.6478 9.9414 25.2631 14.7742 25.2631 15C25.2631 15.3093 69.2795 14.9012 94.1629 14.6304C95.8327 14.6122 97.184 15.9608 97.184 17.6307V26C97.184 27.6569 95.8409 29 94.184 29H47.8505C45.2769 29 43.8979 32.0279 45.5873 33.9693L53.4189 42.9693C53.9887 43.6241 54.8141 44 55.682 44H94C95.6569 44 97 45.3431 97 47V85.7493C97 86.5624 97.3301 87.3407 97.9147 87.906L106.915 96.6081C108.819 98.4491 112 97.0999 112 94.4514V3.01203C112 1.35049 110.65 0.00540663 108.988 0.0120586Z" fill="url(#paint1_linear_1135_3022)"/>
<defs>
<linearGradient id="paint0_linear_1135_3022" x1="30.1845" y1="11" x2="44.2234" y2="81.9877" gradientUnits="userSpaceOnUse">
<stop stop-color="#5390E3"/>
<stop offset="1" stop-color="#1357B3"/>
</linearGradient>
<linearGradient id="paint1_linear_1135_3022" x1="41.4272" y1="4.75754e-07" x2="55.6286" y2="71.2265" gradientUnits="userSpaceOnUse">
<stop stop-color="#5390E3"/>
<stop offset="1" stop-color="#1357B3"/>
</linearGradient>
</defs>
</svg>
